<svg id="레이어_1" data-name="레이어 1" xmlns="http://www.w3.org/2000/svg" viewBox="0 0 976.41 303.92"><defs><style>.cls-1{fill:#ffcd1c;}.cls-2{fill:#fff;}.cls-3{opacity:0.8;}</style></defs><title>internaldashboard</title><ellipse class="cls-1" cx="146.66" cy="150.37" rx="16.08" ry="15.87"/><polygon class="cls-1" points="158.22 59.81 85.21 86.14 17.46 86.13 90.43 59.81 158.22 59.81"/><polygon class="cls-1" points="158.22 111.52 85.21 137.84 17.46 137.83 90.43 111.52 158.22 111.52"/><rect class="cls-2" x="17.47" y="86.14" width="140.76" height="25.38"/><rect class="cls-2" x="17.47" y="137.83" width="100.2" height="25.38"/><rect class="cls-2" x="17.47" y="34.43" width="140.76" height="25.38"/><path class="cls-2" d="M222.52,163V33.74h28.32V140h57.74V163Z"/><path class="cls-2" d="M414.23,71V163H387.17V149.4a28.88,28.88,0,0,1-11.8,11.07,36.51,36.51,0,0,1-17.25,4,37.7,37.7,0,0,1-35.49-22.42q-5.17-10.8-5.18-25a59,59,0,0,1,5.18-25.24,40.4,40.4,0,0,1,14.43-17.15,37.47,37.47,0,0,1,21.06-6.09,35.34,35.34,0,0,1,17.25,4.18A30.2,30.2,0,0,1,387.17,84V71Zm-32.5,65.73q5.44-6.9,5.44-20t-5.44-20.06q-5.44-7-15.62-7t-15.79,7.27q-5.64,7.26-5.63,20.15t5.54,19.7q5.53,6.81,15.88,6.81Q376.28,143.59,381.73,136.69Z"/><path class="cls-2" d="M525.88,107.28V163H498.47V108.55q0-9.63-3.54-14.07T483.76,90q-9.08,0-14.52,5.81t-5.45,15.61V163H436.37V97.29A213.89,213.89,0,0,0,434.92,71H460.7l1.82,14.53A33.87,33.87,0,0,1,475.32,73,36.44,36.44,0,0,1,493.2,68.6Q525.89,68.6,525.88,107.28Z"/><path class="cls-2" d="M640.81,71v87.88q0,22-12.71,33.41t-37,11.44q-22,0-38.12-8.54l4.17-20.33q16.71,8.34,33,8.35,11.79,0,17.61-5.54t5.81-16.79v-16a35.34,35.34,0,0,1-29.42,15.61A38.51,38.51,0,0,1,548.4,138.6q-5.28-10.44-5.27-24.06t5.27-24.06A38.5,38.5,0,0,1,584.16,68.6a36.39,36.39,0,0,1,17.43,4.18,30,30,0,0,1,12,11.26V71Zm-32.95,62q5.71-6.63,5.72-18.43,0-11.62-5.63-18.25t-15.8-6.63q-10.17,0-16,6.63t-5.81,18.25q0,11.63,5.81,18.34t16,6.71Q602.14,139.59,607.86,133Z"/><path class="cls-2" d="M753.26,33.74H780V163H758.89L694.44,80.59V163H667.93V33.74h20.88L753.26,116Z"/><path class="cls-2" d="M883.37,119.26H822.73q.72,12.9,6.72,18.79t17.79,5.9a44.42,44.42,0,0,0,14.17-2.36,45,45,0,0,0,13.07-6.9l7.26,18.52a48.25,48.25,0,0,1-16.25,8.26,65.83,65.83,0,0,1-19.52,3q-23.24,0-36.49-12.8t-13.26-34.95a53.33,53.33,0,0,1,5.72-25A41.67,41.67,0,0,1,818,74.69a45.32,45.32,0,0,1,23.42-6.09q19.43,0,30.69,12.62t11.25,34.05ZM829.54,92.39q-4.81,4.55-6.26,13.25h36.49q-2.17-17.79-17.61-17.79Q834.35,87.85,829.54,92.39Z"/><path class="cls-2" d="M935.53,91.48v35.77q0,7.62,4,11.16A15,15,0,0,0,949.87,142a37.79,37.79,0,0,0,9.08-1.27v21.25a43.76,43.76,0,0,1-15.8,2.54q-17.07,0-26-9.62t-9-27.06V91.48H890.68V71h17.43V49.36l27.42-8.9V71H959V91.48Z"/><g class="cls-3"><path class="cls-2" d="M158.35,270.63h-8.14V227.05h8.14Z"/><path class="cls-2" d="M204.82,227.05v43.58h-4.16a3.67,3.67,0,0,1-1.61-.31,3.83,3.83,0,0,1-1.25-1.08L175,240.19c.13,1.33.19,2.55.19,3.68v26.76h-7.15V227.05h4.25a7.53,7.53,0,0,1,.89,0,2.13,2.13,0,0,1,.66.18,2,2,0,0,1,.56.39,6.36,6.36,0,0,1,.6.68l22.85,29.17c-.06-.7-.11-1.39-.15-2.08s-.06-1.31-.06-1.9V227.05Z"/><path class="cls-2" d="M245,233.71H231.82v36.92h-8.11V233.71H210.58v-6.66H245Z"/><path class="cls-2" d="M258.82,233.5v12.09h15.25v6.24H258.82v12.32h19.35v6.48H250.69V227.05h27.48v6.45Z"/><path class="cls-2" d="M319.37,270.63H312a3.2,3.2,0,0,1-3-1.63l-9.16-13.95a3.21,3.21,0,0,0-1.13-1.11,3.82,3.82,0,0,0-1.82-.34h-3.47v17h-8.11V227.05h13.29a27.71,27.71,0,0,1,7.61.92,14.82,14.82,0,0,1,5.22,2.58,10.29,10.29,0,0,1,3,4,13.79,13.79,0,0,1,.31,9.24,11.88,11.88,0,0,1-1.87,3.56,12.62,12.62,0,0,1-3,2.8,15.31,15.31,0,0,1-4.08,1.9,7.91,7.91,0,0,1,1.44,1.07,7.64,7.64,0,0,1,1.21,1.46Zm-20.86-22.84a12.65,12.65,0,0,0,4-.57,7.75,7.75,0,0,0,2.8-1.59,6.36,6.36,0,0,0,1.64-2.39,8.35,8.35,0,0,0,.54-3.05,6.18,6.18,0,0,0-2.18-5.09c-1.46-1.18-3.68-1.78-6.68-1.78h-5.18v14.47Z"/><path class="cls-2" d="M360.83,227.05v43.58h-4.15a3.72,3.72,0,0,1-1.62-.31,3.83,3.83,0,0,1-1.25-1.08l-22.75-29.05c.12,1.33.18,2.55.18,3.68v26.76H324.1V227.05h4.25a7.53,7.53,0,0,1,.89,0,2.13,2.13,0,0,1,.66.18,2.18,2.18,0,0,1,.56.39,6.36,6.36,0,0,1,.6.68l22.84,29.17c-.06-.7-.11-1.39-.15-2.08s-.06-1.31-.06-1.9V227.05Z"/><path class="cls-2" d="M407.88,270.63h-6.27a2.64,2.64,0,0,1-1.72-.53,3.22,3.22,0,0,1-1-1.31l-3.26-8.89H377.59l-3.25,8.89a2.87,2.87,0,0,1-.94,1.27,2.6,2.6,0,0,1-1.72.57h-6.32l17.14-43.58h8.26Zm-14.32-16.45-5.3-14.5c-.26-.64-.53-1.4-.81-2.29s-.57-1.84-.85-2.86q-.39,1.53-.81,2.88c-.28.89-.55,1.67-.82,2.33l-5.27,14.44Z"/><path class="cls-2" d="M437.92,263.94v6.69H412.4V227.05h8.1v36.89Z"/><path class="cls-2" d="M495.24,248.84a23.44,23.44,0,0,1-1.6,8.8A19.76,19.76,0,0,1,482.19,269a24.41,24.41,0,0,1-9,1.6h-16.6V227.05h16.6a24.21,24.21,0,0,1,9,1.62A19.8,19.8,0,0,1,493.64,240,23.51,23.51,0,0,1,495.24,248.84Zm-8.32,0a20.36,20.36,0,0,0-.94-6.43,13.31,13.31,0,0,0-2.75-4.82,11.82,11.82,0,0,0-4.34-3,14.9,14.9,0,0,0-5.74-1.06h-8.47v30.68h8.47a14.9,14.9,0,0,0,5.74-1.05,12.06,12.06,0,0,0,4.34-3,13.4,13.4,0,0,0,2.75-4.82A20.43,20.43,0,0,0,486.92,248.84Z"/><path class="cls-2" d="M538.37,270.63H532.1a2.64,2.64,0,0,1-1.72-.53,3.22,3.22,0,0,1-1-1.31l-3.26-8.89H508.08l-3.25,8.89a3,3,0,0,1-.94,1.27,2.6,2.6,0,0,1-1.72.57h-6.32L513,227.05h8.26Zm-14.32-16.45-5.3-14.5c-.26-.64-.53-1.4-.81-2.29s-.57-1.84-.85-2.86q-.39,1.53-.81,2.88c-.28.89-.55,1.67-.82,2.33l-5.27,14.44Z"/><path class="cls-2" d="M566.09,235a2.7,2.7,0,0,1-.77.92,1.7,1.7,0,0,1-1,.29,2.65,2.65,0,0,1-1.37-.47c-.49-.31-1.08-.66-1.76-1a14.27,14.27,0,0,0-2.4-1,10.07,10.07,0,0,0-3.24-.47,9.73,9.73,0,0,0-2.95.41,6.21,6.21,0,0,0-2.12,1.13,4.42,4.42,0,0,0-1.28,1.73,5.56,5.56,0,0,0-.43,2.22,3.86,3.86,0,0,0,.86,2.56A7.38,7.38,0,0,0,551.9,243a21.16,21.16,0,0,0,3.22,1.29c1.21.38,2.44.79,3.71,1.22a35.15,35.15,0,0,1,3.71,1.51,12.56,12.56,0,0,1,3.22,2.17,9.79,9.79,0,0,1,2.28,3.21,11.16,11.16,0,0,1,.86,4.61,15.09,15.09,0,0,1-1,5.53,12.83,12.83,0,0,1-3,4.49,13.79,13.79,0,0,1-4.74,3,17.35,17.35,0,0,1-6.42,1.1,20.73,20.73,0,0,1-4.1-.4,21.4,21.4,0,0,1-3.87-1.16,21.72,21.72,0,0,1-3.49-1.81,17.22,17.22,0,0,1-2.89-2.35l2.38-3.89a2.47,2.47,0,0,1,.79-.71,2,2,0,0,1,1-.28,2.88,2.88,0,0,1,1.63.61c.58.42,1.27.87,2.08,1.37a16.11,16.11,0,0,0,2.82,1.38,10.84,10.84,0,0,0,3.87.61,7.9,7.9,0,0,0,5.36-1.64,5.88,5.88,0,0,0,1.9-4.72,4.41,4.41,0,0,0-.86-2.8,6.94,6.94,0,0,0-2.27-1.82,17.12,17.12,0,0,0-3.23-1.25c-1.2-.34-2.43-.72-3.67-1.12a31.16,31.16,0,0,1-3.68-1.44,12.23,12.23,0,0,1-3.23-2.2,10.14,10.14,0,0,1-2.27-3.39,13,13,0,0,1-.86-5,12.06,12.06,0,0,1,3.71-8.65,13.3,13.3,0,0,1,4.46-2.8,16.17,16.17,0,0,1,6.08-1.06,20.19,20.19,0,0,1,7.12,1.21,16.09,16.09,0,0,1,5.54,3.37Z"/><path class="cls-2" d="M612.68,227.05v43.58h-8.13v-19H584.08v19H576V227.05h8.13V245.8h20.47V227.05Z"/><path class="cls-2" d="M637.39,227.05a28.33,28.33,0,0,1,7.33.82,13.84,13.84,0,0,1,5,2.32,9,9,0,0,1,2.84,3.64,12.2,12.2,0,0,1,.91,4.83,9.61,9.61,0,0,1-.45,2.94,8.67,8.67,0,0,1-1.41,2.62,10.32,10.32,0,0,1-2.41,2.21,14.45,14.45,0,0,1-3.48,1.69q9,2,9,9.7a12.45,12.45,0,0,1-1.05,5.13,11.24,11.24,0,0,1-3.08,4.05,14.65,14.65,0,0,1-5,2.67,21.83,21.83,0,0,1-6.75,1H622.39V227.05Zm-6.9,6.27v12.6h6.45c2.78,0,4.87-.5,6.29-1.51a5.47,5.47,0,0,0,2.12-4.79q0-3.41-1.93-4.85t-6-1.45Zm8.2,31a11.58,11.58,0,0,0,3.8-.54,6.43,6.43,0,0,0,2.45-1.45,5.16,5.16,0,0,0,1.33-2.11,7.94,7.94,0,0,0,.41-2.56,6.8,6.8,0,0,0-.45-2.54,4.83,4.83,0,0,0-1.42-1.93,6.59,6.59,0,0,0-2.49-1.22,13.85,13.85,0,0,0-3.66-.42h-8.17V264.3Z"/><path class="cls-2" d="M703.63,248.84a24.24,24.24,0,0,1-1.58,8.88,20.64,20.64,0,0,1-4.47,7.06,20.28,20.28,0,0,1-7,4.66,25.25,25.25,0,0,1-18.06,0,20.42,20.42,0,0,1-7-4.66,20.88,20.88,0,0,1-4.51-7.06,25.41,25.41,0,0,1,0-17.75,21,21,0,0,1,4.51-7.07,20.57,20.57,0,0,1,7-4.66,23.64,23.64,0,0,1,9-1.67,24.56,24.56,0,0,1,6.23.77,22,22,0,0,1,5.37,2.17,19.39,19.39,0,0,1,4.38,3.41,20.2,20.2,0,0,1,3.3,4.47,22.09,22.09,0,0,1,2.07,5.37A25.51,25.51,0,0,1,703.63,248.84Zm-8.28,0a19.79,19.79,0,0,0-1-6.43,13.71,13.71,0,0,0-2.74-4.84,11.77,11.77,0,0,0-4.32-3,16.1,16.1,0,0,0-11.49,0,12,12,0,0,0-4.34,3,13.73,13.73,0,0,0-2.75,4.84,21.83,21.83,0,0,0,0,12.87,13.55,13.55,0,0,0,2.75,4.82,12.23,12.23,0,0,0,4.34,3,16.24,16.24,0,0,0,11.49,0,12,12,0,0,0,4.32-3,13.53,13.53,0,0,0,2.74-4.82A19.85,19.85,0,0,0,695.35,248.84Z"/><path class="cls-2" d="M746.79,270.63h-6.27a2.61,2.61,0,0,1-1.71-.53,3.15,3.15,0,0,1-1-1.31l-3.25-8.89H716.5l-3.25,8.89a2.8,2.8,0,0,1-.94,1.27,2.6,2.6,0,0,1-1.71.57h-6.33l17.15-43.58h8.25Zm-14.31-16.45-5.31-14.5c-.26-.64-.53-1.4-.81-2.29s-.56-1.84-.85-2.86q-.39,1.53-.81,2.88c-.28.89-.55,1.67-.81,2.33l-5.28,14.44Z"/><path class="cls-2" d="M785.33,270.63H778a3.2,3.2,0,0,1-3-1.63l-9.16-13.95a3.21,3.21,0,0,0-1.13-1.11,3.87,3.87,0,0,0-1.83-.34h-3.46v17h-8.11V227.05H764.6a27.76,27.76,0,0,1,7.61.92,14.69,14.69,0,0,1,5.21,2.58,10.09,10.09,0,0,1,3,4,12.92,12.92,0,0,1,1,5.08,13.23,13.23,0,0,1-.65,4.16,12.11,12.11,0,0,1-1.87,3.56,12.62,12.62,0,0,1-3,2.8,15.23,15.23,0,0,1-4.09,1.9,7.65,7.65,0,0,1,1.45,1.07,8,8,0,0,1,1.21,1.46Zm-20.85-22.84a12.54,12.54,0,0,0,4-.57,7.8,7.8,0,0,0,2.81-1.59,6.36,6.36,0,0,0,1.64-2.39,8.35,8.35,0,0,0,.54-3.05,6.2,6.2,0,0,0-2.18-5.09c-1.46-1.18-3.69-1.78-6.68-1.78h-5.18v14.47Z"/><path class="cls-2" d="M828.76,248.84a23.44,23.44,0,0,1-1.6,8.8A19.76,19.76,0,0,1,815.71,269a24.41,24.41,0,0,1-9,1.6h-16.6V227.05h16.6a24.21,24.21,0,0,1,9,1.62A19.8,19.8,0,0,1,827.16,240,23.51,23.51,0,0,1,828.76,248.84Zm-8.32,0a20.36,20.36,0,0,0-.94-6.43,13.31,13.31,0,0,0-2.75-4.82,11.82,11.82,0,0,0-4.34-3,14.94,14.94,0,0,0-5.74-1.06H798.2v30.68h8.47a14.94,14.94,0,0,0,5.74-1.05,12.06,12.06,0,0,0,4.34-3,13.4,13.4,0,0,0,2.75-4.82A20.43,20.43,0,0,0,820.44,248.84Z"/></g></svg>